<svg viewBox="0 0 1310 300" xmlns="http://www.w3.org/2000/svg">
<defs>
  <filter id="soft" x="-20%" y="-20%" width="140%" height="140%">
    <feDropShadow dx="0" dy="3" stdDeviation="3" flood-color="#4B3B4E" flood-opacity="0.15"/>
  </filter>
</defs>
<rect width="1310" height="300" fill="none"/>
<g transform="rotate(-2.5 125.0 160.0)" filter="url(#soft)">
<rect x="30" y="55" width="190" height="210" rx="10" ry="10" fill="#FFFDFB" stroke="#D8A7CA" stroke-width="2" stroke-dasharray="4,3"/>
<g transform="rotate(-8 125.0 55)">
<rect x="90.0" y="41" width="70" height="26" fill="#F9E2AE" opacity="0.75"/>
</g>
<line x1="125.0" y1="151" x2="125.0" y2="219" stroke="#C9E4DE" stroke-width="3"/>
<ellipse cx="111.0" cy="188" rx="14" ry="7" fill="#C9E4DE" transform="rotate(-30 111.0 188)"/>
<g><ellipse cx="125.0" cy="111" rx="12" ry="20" fill="#D8A7CA" opacity="0.9" transform="rotate(0.0 125.0 133)"/><ellipse cx="125.0" cy="111" rx="12" ry="20" fill="#D8A7CA" opacity="0.9" transform="rotate(60.0 125.0 133)"/><ellipse cx="125.0" cy="111" rx="12" ry="20" fill="#D8A7CA" opacity="0.9" transform="rotate(120.0 125.0 133)"/><ellipse cx="125.0" cy="111" rx="12" ry="20" fill="#D8A7CA" opacity="0.9" transform="rotate(180.0 125.0 133)"/><ellipse cx="125.0" cy="111" rx="12" ry="20" fill="#D8A7CA" opacity="0.9" transform="rotate(240.0 125.0 133)"/><ellipse cx="125.0" cy="111" rx="12" ry="20" fill="#D8A7CA" opacity="0.9" transform="rotate(300.0 125.0 133)"/><circle cx="125.0" cy="133" r="10" fill="#F9E2AE"/></g>
<text x="125.0" y="235" text-anchor="middle" font-family="Georgia, serif" font-size="13" font-weight="bold" fill="#4B3B4E">Firmware Analysis</text>
<text x="125.0" y="251" text-anchor="middle" font-family="Georgia, serif" font-style="italic" font-size="10" fill="#4B3B4E" opacity="0.7">Firmwarea Dissecta</text>
</g>
<g transform="rotate(2.5 337.0 160.0)" filter="url(#soft)">
<rect x="242" y="55" width="190" height="210" rx="10" ry="10" fill="#FFFDFB" stroke="#FFCAD4" stroke-width="2" stroke-dasharray="4,3"/>
<g transform="rotate(8 337.0 55)">
<rect x="302.0" y="41" width="70" height="26" fill="#F6D6E1" opacity="0.75"/>
</g>
<line x1="337.0" y1="151" x2="337.0" y2="219" stroke="#D0F4DE" stroke-width="3"/>
<ellipse cx="323.0" cy="188" rx="14" ry="7" fill="#D0F4DE" transform="rotate(-30 323.0 188)"/>
<g><ellipse cx="337.0" cy="111" rx="12" ry="20" fill="#FFCAD4" opacity="0.9" transform="rotate(0.0 337.0 133)"/><ellipse cx="337.0" cy="111" rx="12" ry="20" fill="#FFCAD4" opacity="0.9" transform="rotate(60.0 337.0 133)"/><ellipse cx="337.0" cy="111" rx="12" ry="20" fill="#FFCAD4" opacity="0.9" transform="rotate(120.0 337.0 133)"/><ellipse cx="337.0" cy="111" rx="12" ry="20" fill="#FFCAD4" opacity="0.9" transform="rotate(180.0 337.0 133)"/><ellipse cx="337.0" cy="111" rx="12" ry="20" fill="#FFCAD4" opacity="0.9" transform="rotate(240.0 337.0 133)"/><ellipse cx="337.0" cy="111" rx="12" ry="20" fill="#FFCAD4" opacity="0.9" transform="rotate(300.0 337.0 133)"/><circle cx="337.0" cy="133" r="10" fill="#F6D6E1"/></g>
<text x="337.0" y="235" text-anchor="middle" font-family="Georgia, serif" font-size="13" font-weight="bold" fill="#4B3B4E">Side-Channel Analysis</text>
<text x="337.0" y="251" text-anchor="middle" font-family="Georgia, serif" font-style="italic" font-size="10" fill="#4B3B4E" opacity="0.7">Signalis Occulta</text>
</g>
<g transform="rotate(-2.5 549.0 160.0)" filter="url(#soft)">
<rect x="454" y="55" width="190" height="210" rx="10" ry="10" fill="#FFFDFB" stroke="#C9E4DE" stroke-width="2" stroke-dasharray="4,3"/>
<g transform="rotate(-8 549.0 55)">
<rect x="514.0" y="41" width="70" height="26" fill="#D0F4DE" opacity="0.75"/>
</g>
<line x1="549.0" y1="151" x2="549.0" y2="219" stroke="#B8E0D2" stroke-width="3"/>
<ellipse cx="535.0" cy="188" rx="14" ry="7" fill="#B8E0D2" transform="rotate(-30 535.0 188)"/>
<g><ellipse cx="549.0" cy="111" rx="12" ry="20" fill="#C9E4DE" opacity="0.9" transform="rotate(0.0 549.0 133)"/><ellipse cx="549.0" cy="111" rx="12" ry="20" fill="#C9E4DE" opacity="0.9" transform="rotate(60.0 549.0 133)"/><ellipse cx="549.0" cy="111" rx="12" ry="20" fill="#C9E4DE" opacity="0.9" transform="rotate(120.0 549.0 133)"/><ellipse cx="549.0" cy="111" rx="12" ry="20" fill="#C9E4DE" opacity="0.9" transform="rotate(180.0 549.0 133)"/><ellipse cx="549.0" cy="111" rx="12" ry="20" fill="#C9E4DE" opacity="0.9" transform="rotate(240.0 549.0 133)"/><ellipse cx="549.0" cy="111" rx="12" ry="20" fill="#C9E4DE" opacity="0.9" transform="rotate(300.0 549.0 133)"/><circle cx="549.0" cy="133" r="10" fill="#D0F4DE"/></g>
<text x="549.0" y="235" text-anchor="middle" font-family="Georgia, serif" font-size="13" font-weight="bold" fill="#4B3B4E">Embedded Systems</text>
<text x="549.0" y="251" text-anchor="middle" font-family="Georgia, serif" font-style="italic" font-size="10" fill="#4B3B4E" opacity="0.7">Silicium Vivens</text>
</g>
<g transform="rotate(2.5 761.0 160.0)" filter="url(#soft)">
<rect x="666" y="55" width="190" height="210" rx="10" ry="10" fill="#FFFDFB" stroke="#D8C7E9" stroke-width="2" stroke-dasharray="4,3"/>
<g transform="rotate(8 761.0 55)">
<rect x="726.0" y="41" width="70" height="26" fill="#E4C1F9" opacity="0.75"/>
</g>
<line x1="761.0" y1="151" x2="761.0" y2="219" stroke="#C9E4DE" stroke-width="3"/>
<ellipse cx="747.0" cy="188" rx="14" ry="7" fill="#C9E4DE" transform="rotate(-30 747.0 188)"/>
<g><ellipse cx="761.0" cy="111" rx="12" ry="20" fill="#D8C7E9" opacity="0.9" transform="rotate(0.0 761.0 133)"/><ellipse cx="761.0" cy="111" rx="12" ry="20" fill="#D8C7E9" opacity="0.9" transform="rotate(60.0 761.0 133)"/><ellipse cx="761.0" cy="111" rx="12" ry="20" fill="#D8C7E9" opacity="0.9" transform="rotate(120.0 761.0 133)"/><ellipse cx="761.0" cy="111" rx="12" ry="20" fill="#D8C7E9" opacity="0.9" transform="rotate(180.0 761.0 133)"/><ellipse cx="761.0" cy="111" rx="12" ry="20" fill="#D8C7E9" opacity="0.9" transform="rotate(240.0 761.0 133)"/><ellipse cx="761.0" cy="111" rx="12" ry="20" fill="#D8C7E9" opacity="0.9" transform="rotate(300.0 761.0 133)"/><circle cx="761.0" cy="133" r="10" fill="#E4C1F9"/></g>
<text x="761.0" y="235" text-anchor="middle" font-family="Georgia, serif" font-size="13" font-weight="bold" fill="#4B3B4E">Network Security</text>
<text x="761.0" y="251" text-anchor="middle" font-family="Georgia, serif" font-style="italic" font-size="10" fill="#4B3B4E" opacity="0.7">Muralis Digitalis</text>
</g>
<g transform="rotate(-2.5 973.0 160.0)" filter="url(#soft)">
<rect x="878" y="55" width="190" height="210" rx="10" ry="10" fill="#FFFDFB" stroke="#F9E2AE" stroke-width="2" stroke-dasharray="4,3"/>
<g transform="rotate(-8 973.0 55)">
<rect x="938.0" y="41" width="70" height="26" fill="#FFCAD4" opacity="0.75"/>
</g>
<line x1="973.0" y1="151" x2="973.0" y2="219" stroke="#D0F4DE" stroke-width="3"/>
<ellipse cx="959.0" cy="188" rx="14" ry="7" fill="#D0F4DE" transform="rotate(-30 959.0 188)"/>
<g><ellipse cx="973.0" cy="111" rx="12" ry="20" fill="#F9E2AE" opacity="0.9" transform="rotate(0.0 973.0 133)"/><ellipse cx="973.0" cy="111" rx="12" ry="20" fill="#F9E2AE" opacity="0.9" transform="rotate(60.0 973.0 133)"/><ellipse cx="973.0" cy="111" rx="12" ry="20" fill="#F9E2AE" opacity="0.9" transform="rotate(120.0 973.0 133)"/><ellipse cx="973.0" cy="111" rx="12" ry="20" fill="#F9E2AE" opacity="0.9" transform="rotate(180.0 973.0 133)"/><ellipse cx="973.0" cy="111" rx="12" ry="20" fill="#F9E2AE" opacity="0.9" transform="rotate(240.0 973.0 133)"/><ellipse cx="973.0" cy="111" rx="12" ry="20" fill="#F9E2AE" opacity="0.9" transform="rotate(300.0 973.0 133)"/><circle cx="973.0" cy="133" r="10" fill="#FFCAD4"/></g>
<text x="973.0" y="235" text-anchor="middle" font-family="Georgia, serif" font-size="13" font-weight="bold" fill="#4B3B4E">CTF &amp; Hardware Exploits</text>
<text x="973.0" y="251" text-anchor="middle" font-family="Georgia, serif" font-style="italic" font-size="10" fill="#4B3B4E" opacity="0.7">Vulnera Quaerens</text>
</g>
<g transform="rotate(2.5 1185.0 160.0)" filter="url(#soft)">
<rect x="1090" y="55" width="190" height="210" rx="10" ry="10" fill="#FFFDFB" stroke="#C1E1EC" stroke-width="2" stroke-dasharray="4,3"/>
<g transform="rotate(8 1185.0 55)">
<rect x="1150.0" y="41" width="70" height="26" fill="#D8C7E9" opacity="0.75"/>
</g>
<line x1="1185.0" y1="151" x2="1185.0" y2="219" stroke="#C9E4DE" stroke-width="3"/>
<ellipse cx="1171.0" cy="188" rx="14" ry="7" fill="#C9E4DE" transform="rotate(-30 1171.0 188)"/>
<g><ellipse cx="1185.0" cy="111" rx="12" ry="20" fill="#C1E1EC" opacity="0.9" transform="rotate(0.0 1185.0 133)"/><ellipse cx="1185.0" cy="111" rx="12" ry="20" fill="#C1E1EC" opacity="0.9" transform="rotate(60.0 1185.0 133)"/><ellipse cx="1185.0" cy="111" rx="12" ry="20" fill="#C1E1EC" opacity="0.9" transform="rotate(120.0 1185.0 133)"/><ellipse cx="1185.0" cy="111" rx="12" ry="20" fill="#C1E1EC" opacity="0.9" transform="rotate(180.0 1185.0 133)"/><ellipse cx="1185.0" cy="111" rx="12" ry="20" fill="#C1E1EC" opacity="0.9" transform="rotate(240.0 1185.0 133)"/><ellipse cx="1185.0" cy="111" rx="12" ry="20" fill="#C1E1EC" opacity="0.9" transform="rotate(300.0 1185.0 133)"/><circle cx="1185.0" cy="133" r="10" fill="#D8C7E9"/></g>
<text x="1185.0" y="235" text-anchor="middle" font-family="Georgia, serif" font-size="13" font-weight="bold" fill="#4B3B4E">Robotics (ROS)</text>
<text x="1185.0" y="251" text-anchor="middle" font-family="Georgia, serif" font-style="italic" font-size="10" fill="#4B3B4E" opacity="0.7">Automata Mobilis</text>
</g>
</svg>